<svg xmlns="http://www.w3.org/2000/svg" width="512" height="512" viewBox="0 0 512 512" version="1.1">
	<path d="M 218.500 17.473 C 211.349 19.039, 202.538 22.820, 196.423 26.947 C 192.997 29.260, 191.471 29.750, 189.741 29.096 C 185.229 27.390, 177.121 26.876, 171.384 27.934 C 159.327 30.156, 147.848 38.427, 142.717 48.589 C 137.335 59.249, 131.267 81.755, 128.464 101.455 C 126.788 113.228, 120.697 241.700, 120.638 266.500 C 120.584 289.293, 121.787 294.325, 137.877 338.648 C 145.095 358.530, 151 375.067, 151 375.398 C 151 375.729, 131.538 376.007, 107.750 376.015 C 72.739 376.027, 63.281 376.317, 58.103 377.537 C 34.047 383.208, 16.030 405.889, 16.030 430.500 C 16.030 450.818, 28.311 470.356, 46.500 478.973 C 59.496 485.130, 83.796 491.234, 107 494.171 C 115.353 495.228, 151.033 495.500, 281.500 495.500 L 445.500 495.500 452.835 492.821 C 477.810 483.697, 494.055 462.592, 495.705 437.121 C 496.398 426.419, 494.098 414.689, 489.545 405.708 C 487.814 402.294, 471.908 378.427, 454.199 352.671 C 436.489 326.915, 422 305.656, 422 305.430 C 422 305.203, 423.571 302.959, 425.491 300.444 C 430.722 293.590, 432.394 286.615, 431.703 274.521 C 431.007 262.332, 428.864 251.445, 424.812 239.500 C 420.743 227.510, 419.440 225.039, 400.013 192.500 L 383.297 164.500 379.505 149 C 377.420 140.475, 375.310 132.707, 374.816 131.738 C 374.321 130.769, 369.444 127.732, 363.977 124.988 C 356.004 120.987, 353.043 120, 349.018 120 L 344 120 344 110.611 C 344 103.110, 343.648 100.813, 342.250 99.189 C 341.288 98.071, 330.613 92.677, 318.529 87.202 L 296.558 77.247 294.815 68.374 C 287.834 32.839, 253.352 9.840, 218.500 17.473 M 220.112 33.581 C 207.552 36.958, 195.196 46.760, 189.616 57.771 C 188.177 60.610, 187 63.137, 187 63.385 C 187 63.633, 197.238 63.994, 209.750 64.186 C 231.481 64.521, 232.722 64.646, 237.458 66.976 C 240.185 68.318, 244.039 71.039, 246.022 73.022 L 249.629 76.629 253.430 74.657 C 260.772 70.846, 270.513 71.480, 277.250 76.207 C 279.904 78.069, 280 78.072, 280 76.278 C 280 75.256, 279.329 71.843, 278.508 68.693 C 271.757 42.774, 245.233 26.825, 220.112 33.581 M 172.500 43.935 C 164.729 45.827, 159.373 50.626, 155.688 59 C 151.206 69.184, 146.039 89.760, 144.001 105.538 C 143.048 112.917, 138.855 198.180, 139.418 198.748 C 139.553 198.885, 141.186 196.860, 143.047 194.248 C 150.269 184.113, 163.608 168.900, 165.750 168.355 L 168 167.783 168.017 120.642 C 168.037 67.712, 168.324 64.782, 174.737 52 C 176.807 47.875, 178.650 44.163, 178.833 43.750 C 179.231 42.854, 176.627 42.930, 172.500 43.935 M 184 86.455 L 184 92.909 186.455 90.455 C 188.002 88.907, 190.052 88, 192 88 C 193.948 88, 195.998 88.907, 197.545 90.455 C 202.506 95.415, 198.991 104, 192 104 C 190.052 104, 188.002 103.093, 186.455 101.545 L 184 99.091 184 111.179 C 184 126.489, 185.076 130.144, 191.466 136.534 C 197.647 142.714, 201.590 144, 214.366 144 L 224 144 224 152 L 224 160 215.684 160 L 207.368 160 205.097 165.479 C 203.557 169.194, 201.083 172.551, 197.413 175.905 L 192 180.853 192 187.972 C 192 194.299, 192.288 195.379, 194.591 197.682 C 197.011 200.101, 197.614 200.232, 203.742 199.660 C 211.289 198.955, 220.713 194.947, 226.246 190.089 C 228.255 188.325, 232.171 183.817, 234.949 180.069 L 240 173.255 240 142.628 L 240 112 248 112 L 256 112 256 116 L 256 120 261.545 120 C 266.100 120, 267.530 119.561, 269.545 117.545 C 271.856 115.234, 272 114.442, 272 104 C 272 93.558, 271.856 92.766, 269.545 90.455 C 264.585 85.494, 256 89.009, 256 96 C 256 100.029, 252.107 104, 248.156 104 C 243.528 104, 240.881 101.136, 239.926 95.098 C 238.933 88.814, 235.157 83.381, 230.400 81.394 C 227.898 80.348, 221.681 80, 205.532 80 L 184 80 184 86.455 M 210.455 90.455 C 205.494 95.415, 209.009 104, 216 104 C 217.948 104, 219.998 103.093, 221.545 101.545 C 223.093 99.998, 224 97.948, 224 96 C 224 94.052, 223.093 92.002, 221.545 90.455 C 219.998 88.907, 217.948 88, 216 88 C 214.052 88, 212.002 88.907, 210.455 90.455 M 293.354 98.707 C 293.015 99.693, 291.708 102.975, 290.450 106 C 289.192 109.025, 287.921 113.235, 287.627 115.356 C 287.332 117.477, 286.171 120.979, 285.045 123.137 C 282.617 127.796, 283.523 128.596, 290.211 127.699 C 294.727 127.093, 298.271 124.857, 301.438 120.615 C 304.689 116.261, 304.330 107.433, 300.709 102.686 C 296.987 97.805, 294.185 96.289, 293.354 98.707 M 319.409 113.257 C 319.310 121.093, 316.839 127.472, 311.399 133.938 L 308.687 137.161 313.258 141.732 L 317.830 146.303 322.915 136.170 C 327.835 126.364, 328 125.761, 328 117.532 L 328 109.027 324.378 107.513 C 322.386 106.681, 320.473 106.003, 320.128 106.007 C 319.783 106.011, 319.459 109.274, 319.409 113.257 M 336.448 145.104 C 333.933 150.112, 332.018 154.352, 332.193 154.527 C 332.369 154.702, 337.860 156.197, 344.396 157.848 C 350.932 159.500, 356.923 161.494, 357.707 162.279 C 358.492 163.064, 361.470 172.265, 364.324 182.727 C 369.158 200.447, 369.790 202.048, 373.558 206.136 C 377.034 209.907, 379.620 215.587, 391.943 246.512 C 405.285 279.997, 410.318 290.994, 412.301 290.998 C 412.742 290.999, 413.811 289.313, 414.678 287.250 C 417.983 279.381, 414.185 254.913, 406.964 237.569 C 405.182 233.288, 395.849 216.672, 386.223 200.643 L 368.721 171.500 364.955 156.678 C 362.884 148.526, 361.034 141.717, 360.845 141.548 C 358.334 139.307, 349.214 136, 345.543 136 L 341.020 136 336.448 145.104 M 262.206 146.379 C 256.067 154.668, 256 154.829, 256 161.379 L 256 168 264.194 168 C 270.963 168, 306.416 173.951, 315 176.528 C 315.825 176.775, 322.277 183.508, 329.338 191.489 C 336.398 199.470, 342.756 206, 343.465 206 C 344.175 206, 345.275 205.373, 345.911 204.608 C 346.546 203.842, 348.330 202.692, 349.874 202.052 L 352.681 200.890 349.078 187.754 L 345.476 174.619 330.583 170.889 L 315.690 167.159 304.095 155.696 L 292.500 144.233 285.800 143.659 C 281.549 143.294, 277.267 142.156, 274.084 140.542 C 271.324 139.144, 268.919 138, 268.739 138 C 268.559 138, 265.619 141.770, 262.206 146.379 M 184 159.069 C 184 165.748, 184.092 166.021, 185.990 165.006 C 187.901 163.982, 191 159.123, 191 157.148 C 191 156.625, 189.425 155.268, 187.500 154.133 L 184 152.067 184 159.069 M 164.115 193.122 C 150.901 209.240, 143.563 223.616, 138.762 242.793 C 136.958 250, 136.593 254.256, 136.640 267.500 C 136.712 287.486, 137.311 289.879, 153.500 334.855 L 165.500 368.195 181.500 367.708 C 201.570 367.097, 212.584 364.491, 228.500 356.588 C 238.808 351.470, 256 339.159, 256 336.896 C 256 336.367, 254.908 333.779, 253.574 331.145 C 248.132 320.408, 246.115 302.215, 248.996 289.873 C 250.538 283.264, 256.137 270.820, 259.625 266.247 L 262.216 262.851 259.569 254.844 C 253.215 235.618, 252.739 216.904, 258.077 196.200 C 259.685 189.966, 261 184.670, 261 184.432 C 261 184.195, 259.004 184, 256.564 184 C 252.204 184, 252.022 184.136, 245.987 191.937 C 234.776 206.430, 221.457 214.107, 204.850 215.651 C 194.996 216.566, 189.690 214.806, 183.466 208.555 C 177.800 202.865, 176 198.304, 176 189.634 C 176 184.441, 175.824 184.004, 173.750 184.057 C 172.163 184.098, 169.322 186.771, 164.115 193.122 M 277.581 185.878 C 276.247 188.065, 271.813 206.957, 270.922 214.250 C 269.673 224.466, 270.867 237.121, 274.053 247.435 C 275.168 251.046, 276.203 254, 276.353 254 C 276.502 254, 280.619 252.650, 285.500 251 C 290.381 249.350, 295.195 248, 296.197 248 C 297.199 248, 307.513 252.751, 319.117 258.559 C 330.722 264.366, 340.461 268.872, 340.760 268.573 C 341.059 268.274, 340.474 258.311, 339.460 246.433 L 337.615 224.837 322.846 208.169 L 308.077 191.500 293.019 188.378 C 284.737 186.660, 277.790 185.535, 277.581 185.878 M 354.947 218.053 C 353.296 219.704, 353.002 220.929, 353.449 224.303 C 353.755 226.611, 354.919 238.850, 356.035 251.500 C 357.902 272.664, 358.297 274.980, 360.976 280.510 C 364.579 287.944, 367.999 291.288, 376.152 295.346 C 383.178 298.844, 382.340 297.327, 387.977 316.740 L 390.079 323.980 399.039 319.480 C 403.968 317.005, 408 314.713, 408 314.386 C 408 314.059, 404.613 308.861, 400.474 302.833 C 393.485 292.655, 391.909 289.276, 378.353 255.387 C 370.325 235.319, 363.105 218.248, 362.307 217.450 C 360.266 215.409, 357.352 215.648, 354.947 218.053 M 284.500 268.315 C 275.899 271.359, 275.337 271.744, 271.808 277 C 261.178 292.835, 261.011 314.194, 271.391 330.387 C 273.194 333.199, 275.306 336.023, 276.084 336.663 C 277.840 338.105, 394.224 399.126, 394.527 398.763 C 394.648 398.618, 389.070 378.640, 382.132 354.367 L 369.518 310.235 365.009 307.687 C 359.755 304.717, 354.588 300.073, 350.515 294.660 C 348.079 291.423, 343.575 288.793, 321.820 277.910 C 307.627 270.809, 295.449 265.029, 294.757 265.065 C 294.066 265.101, 289.450 266.563, 284.500 268.315 M 406.250 333.788 C 399.133 337.375, 395.024 340.018, 395.066 340.980 C 395.103 341.816, 399.490 357.575, 404.816 376 L 414.500 409.500 428 416.705 C 435.425 420.668, 441.950 424.084, 442.500 424.297 C 443.296 424.605, 437.288 439, 436.364 439 C 436.226 439, 397.829 418.941, 351.037 394.425 L 265.960 349.851 260.893 354.407 C 250.706 363.565, 235.222 372.448, 221 377.293 C 208.727 381.473, 199.366 383.060, 183.250 383.690 C 171.119 384.165, 168 384.574, 168 385.689 C 168 386.460, 166.895 388.195, 165.545 389.545 L 163.091 392 114.361 392 C 59.897 392, 59.021 392.091, 49.028 398.817 C 33.413 409.327, 27.816 429.326, 35.748 446.274 C 42.764 461.268, 52.871 467.071, 84 473.980 C 106.012 478.865, 111.368 479.267, 160.772 479.735 L 208.044 480.182 207.772 460.897 L 207.500 441.611 186.150 435.832 C 150.523 426.188, 135.637 425.077, 101.066 429.487 C 90.378 430.851, 81.501 431.834, 81.340 431.673 C 80.883 431.217, 78.926 416.740, 79.274 416.393 C 79.444 416.223, 86.764 415.069, 95.541 413.829 C 107.878 412.086, 116.153 411.572, 132 411.565 C 156.847 411.554, 159.984 412.079, 199.929 422.935 L 229.357 430.933 236.877 427.216 C 244.071 423.661, 244.839 423.500, 254.616 423.500 L 264.835 423.500 305.396 443.739 C 342.461 462.234, 346.182 464.319, 348.564 467.918 C 349.998 470.084, 351.417 473.689, 351.717 475.928 L 352.263 480 395.422 480 C 442.405 480, 445.101 479.740, 455.425 474.221 C 466.678 468.205, 476.393 455.052, 479.060 442.219 C 480.672 434.459, 479.706 423.550, 476.759 416.254 C 475.342 412.747, 462.682 393.295, 446.096 369.140 C 430.559 346.513, 417.769 328.026, 417.673 328.058 C 417.578 328.090, 412.438 330.668, 406.250 333.788 M 246.500 440.202 C 244.850 440.777, 241.514 442.766, 239.086 444.623 C 234.431 448.184, 232.512 448.581, 227.243 447.070 L 224 446.140 224 463.078 L 224 480.017 279.667 479.758 C 322.461 479.560, 335.428 479.217, 335.741 478.277 C 335.995 477.516, 321.761 469.873, 298.028 458.027 C 262.712 440.400, 259.525 439.006, 254.704 439.079 C 251.842 439.122, 248.150 439.628, 246.500 440.202" stroke="none" fill="black" fill-rule="evenodd"/>
</svg>